<?xml version="1.0" encoding="UTF-8" standalone="no"?>
<svg
   xmlns:dc="http://purl.org/dc/elements/1.1/"
   xmlns:cc="http://creativecommons.org/ns#"
   xmlns:rdf="http://www.w3.org/1999/02/22-rdf-syntax-ns#"
   xmlns:svg="http://www.w3.org/2000/svg"
   xmlns="http://www.w3.org/2000/svg"
   xmlns:sodipodi="http://sodipodi.sourceforge.net/DTD/sodipodi-0.dtd"
   xmlns:inkscape="http://www.inkscape.org/namespaces/inkscape"
   version="1.1"
   width="166.21533"
   height="57.816895"
   id="svg302"
   sodipodi:docname="dfa.svg"
   inkscape:version="0.92.2 5c3e80d, 2017-08-06">
  <metadata
     id="metadata308">
    <rdf:RDF>
      <cc:Work
         rdf:about="">
        <dc:format>image/svg+xml</dc:format>
        <dc:type
           rdf:resource="http://purl.org/dc/dcmitype/StillImage" />
        <dc:title></dc:title>
      </cc:Work>
    </rdf:RDF>
  </metadata>
  <defs
     id="defs306" />
  <sodipodi:namedview
     pagecolor="#ffffff"
     bordercolor="#666666"
     borderopacity="1"
     objecttolerance="10"
     gridtolerance="10"
     guidetolerance="10"
     inkscape:pageopacity="0"
     inkscape:pageshadow="2"
     inkscape:window-width="909"
     inkscape:window-height="650"
     id="namedview304"
     showgrid="false"
     fit-margin-top="0"
     fit-margin-left="0"
     fit-margin-right="0"
     fit-margin-bottom="0"
     inkscape:zoom="1.6052952"
     inkscape:cx="77.418946"
     inkscape:cy="-53.940865"
     inkscape:window-x="441"
     inkscape:window-y="143"
     inkscape:window-maximized="0"
     inkscape:current-layer="svg302" />
  <path
     d="m 22.27832,33.261719 v 3.04541 h -0.993652 v -8.303711 h 0.993652 v 0.768066 q 0.24707,-0.4458 0.657959,-0.679443 0.410889,-0.233643 0.947998,-0.233643 1.090332,0 1.710694,0.843262 0.620361,0.843262 0.620361,2.336426 0,1.466309 -0.623047,2.301514 -0.623047,0.835205 -1.708008,0.835205 -0.547851,0 -0.95874,-0.233643 -0.410889,-0.233642 -0.647217,-0.679443 z m 2.900391,-2.245117 q 0,-1.149414 -0.362549,-1.734864 -0.362549,-0.585449 -1.076904,-0.585449 -0.719727,0 -1.090332,0.588135 -0.370606,0.588135 -0.370606,1.732178 0,1.138671 0.370606,1.729492 0.370605,0.59082 1.090332,0.59082 0.714355,0 1.076904,-0.585449 0.362549,-0.585449 0.362549,-1.734863 z"
     id="path194"
     inkscape:connector-curvature="0"
     style="fill:#000000;fill-opacity:1" />
  <path
     d="m 30.143066,44.354981 v -8.035157 h 0.859375 v 7.111328 h 2.991699 v 0.923829 z"
     id="path196"
     inkscape:connector-curvature="0"
     style="fill:#000000;fill-opacity:1" />
  <path
     d="m 43.713379,57.816895 v -8.497071 h 1.71875 v 6.649414 h 2.562011 v 1.847657 z"
     id="path198"
     inkscape:connector-curvature="0"
     style="fill:#5221ae;fill-opacity:1" />
  <path
     d="m 48.156738,57.816895 v -1.847657 h 6.837402 v 1.847657 z"
     id="path200"
     inkscape:connector-curvature="0"
     style="fill:#5221ae;fill-opacity:1" />
  <path
     d="m 55.156738,57.816895 v -1.847657 h 6.837402 v 1.847657 z"
     id="path202"
     inkscape:connector-curvature="0"
     style="fill:#5221ae;fill-opacity:1" />
  <path
     d="m 62.156738,57.816895 v -1.847657 h 6.837402 v 1.847657 z"
     id="path204"
     inkscape:connector-curvature="0"
     style="fill:#5221ae;fill-opacity:1" />
  <path
     d="m 69.156738,57.816895 v -1.847657 h 2.556641 v -6.649414 h 1.71875 v 8.497071 z"
     id="path206"
     inkscape:connector-curvature="0"
     style="fill:#5221ae;fill-opacity:1" />
  <path
     d="m 113.71338,57.816895 v -8.497071 h 1.71875 v 6.649414 h 2.56201 v 1.847657 z"
     id="path208"
     inkscape:connector-curvature="0"
     style="fill:#f541f7;fill-opacity:1" />
  <path
     d="m 118.15674,57.816895 v -1.847657 h 6.8374 v 1.847657 z"
     id="path210"
     inkscape:connector-curvature="0"
     style="fill:#f541f7;fill-opacity:1" />
  <path
     d="m 125.15674,57.816895 v -1.847657 h 6.8374 v 1.847657 z"
     id="path212"
     inkscape:connector-curvature="0"
     style="fill:#f541f7;fill-opacity:1" />
  <path
     d="m 132.15674,57.816895 v -1.847657 h 6.8374 v 1.847657 z"
     id="path214"
     inkscape:connector-curvature="0"
     style="fill:#f541f7;fill-opacity:1" />
  <path
     d="m 139.15674,57.816895 v -1.847657 h 2.55664 v -6.649414 h 1.71875 v 8.497071 z"
     id="path216"
     inkscape:connector-curvature="0"
     style="fill:#f541f7;fill-opacity:1" />
  <path
     d="m 34.296387,47.437988 v -6.552734 l 6.558105,3.276367 z"
     id="path218"
     inkscape:connector-curvature="0"
     style="fill:#000000;fill-opacity:1" />
  <path
     d="M 43.713379,50.338379 V 36.319824 h 1.71875 v 14.018555 z"
     id="path220"
     inkscape:connector-curvature="0"
     style="fill:#5221ae;fill-opacity:1" />
  <path
     d="m 57.047363,44.038086 q 0,1.149414 0.362549,1.734863 0.362549,0.585449 1.076904,0.585449 0.714356,0 1.082276,-0.588134 0.36792,-0.588135 0.36792,-1.732178 0,-1.144043 -0.36792,-1.732178 -0.36792,-0.588135 -1.082276,-0.588135 -0.714355,0 -1.076904,0.58545 -0.362549,0.585449 -0.362549,1.734863 z m 2.889649,2.234375 q -0.2417,0.445801 -0.652588,0.684814 -0.410889,0.239014 -0.953369,0.239014 -1.07959,0 -1.705323,-0.835205 Q 56,45.525879 56,44.05957 q 0,-1.493164 0.623047,-2.336425 0.623047,-0.843262 1.708008,-0.843262 0.537109,0 0.947998,0.233642 0.410888,0.233643 0.657959,0.679444 v -0.768067 h 0.993652 v 8.303711 h -0.993652 z"
     id="path222"
     inkscape:connector-curvature="0"
     style="fill:#000000;fill-opacity:1" />
  <path
     d="M 71.713379,50.338379 V 36.319824 h 1.71875 v 14.018555 z"
     id="path224"
     inkscape:connector-curvature="0"
     style="fill:#5221ae;fill-opacity:1" />
  <path
     d="m 76.156738,44.354981 v -0.923829 h 6.837402 v 0.923829 z"
     id="path226"
     inkscape:connector-curvature="0"
     style="fill:#000000;fill-opacity:1" />
  <path
     d="m 83.156738,44.354981 v -0.923829 h 6.837402 v 0.923829 z"
     id="path228"
     inkscape:connector-curvature="0"
     style="fill:#000000;fill-opacity:1" />
  <path
     d="m 90.15674,44.354981 v -0.923829 h 6.8374 v 0.923829 z"
     id="path230"
     inkscape:connector-curvature="0"
     style="fill:#000000;fill-opacity:1" />
  <path
     d="m 97.15674,44.354981 v -0.923829 h 6.8374 v 0.923829 z"
     id="path232"
     inkscape:connector-curvature="0"
     style="fill:#000000;fill-opacity:1" />
  <path
     d="m 104.29639,47.437988 v -6.552734 l 6.5581,3.276367 z"
     id="path234"
     inkscape:connector-curvature="0"
     style="fill:#000000;fill-opacity:1" />
  <path
     d="M 113.71338,50.338379 V 36.319824 h 1.71875 v 14.018555 z"
     id="path236"
     inkscape:connector-curvature="0"
     style="fill:#f541f7;fill-opacity:1" />
  <path
     d="m 130.97363,38.661621 v 0.821777 h -1.12256 q -0.53173,0 -0.73852,0.21753 -0.20679,0.217529 -0.20679,0.770752 v 0.531738 h 2.06787 v 0.768066 h -2.06787 v 5.247559 h -0.98828 v -5.247559 h -1.60596 v -0.768066 h 1.60596 v -0.418945 q 0,-0.988282 0.45386,-1.455567 0.45385,-0.467285 1.41528,-0.467285 z"
     id="path238"
     inkscape:connector-curvature="0"
     style="fill:#000000;fill-opacity:1" />
  <path
     d="M 141.71338,50.338379 V 36.319824 h 1.71875 v 14.018555 z"
     id="path240"
     inkscape:connector-curvature="0"
     style="fill:#f541f7;fill-opacity:1" />
  <path
     d="m 146.29639,44.161621 6.5581,-3.276367 v 6.552734 z"
     id="path242"
     inkscape:connector-curvature="0"
     style="fill:#000000;fill-opacity:1" />
  <path
     d="m 153.15674,44.354981 v -0.923829 h 2.98633 v -7.111328 h 0.85937 v 8.035157 z"
     id="path244"
     inkscape:connector-curvature="0"
     style="fill:#000000;fill-opacity:1" />
  <path
     d="M 30.143066,37.338379 V 23.319824 h 0.859375 v 14.018555 z"
     id="path246"
     inkscape:connector-curvature="0"
     style="fill:#000000;fill-opacity:1" />
  <path
     d="m 43.713379,37.338379 v -7.369141 h 4.280761 v 1.847657 h -2.562011 v 5.521484 z"
     id="path248"
     inkscape:connector-curvature="0"
     style="fill:#5221ae;fill-opacity:1" />
  <path
     d="m 48.156738,31.816895 v -1.847657 h 6.837402 v 1.847657 z"
     id="path250"
     inkscape:connector-curvature="0"
     style="fill:#5221ae;fill-opacity:1" />
  <path
     d="m 55.156738,31.816895 v -1.847657 h 6.837402 v 1.847657 z"
     id="path252"
     inkscape:connector-curvature="0"
     style="fill:#5334ad;fill-opacity:1" />
  <path
     d="m 62.156738,31.816895 v -1.847657 h 6.837402 v 1.847657 z"
     id="path254"
     inkscape:connector-curvature="0"
     style="fill:#5221ae;fill-opacity:1" />
  <path
     d="m 71.713379,37.338379 v -5.521484 h -2.556641 v -1.847657 h 4.275391 v 7.369141 z"
     id="path256"
     inkscape:connector-curvature="0"
     style="fill:#5221ae;fill-opacity:1" />
  <path
     d="m 96.26904,28.003418 -2.15381,2.878906 2.36328,3.136719 h -1.14404 l -1.76172,-2.411621 -1.75634,2.411621 h -1.14405 l 2.36328,-3.136719 -2.1538,-2.878906 h 1.0957 l 1.59521,2.175293 1.58448,-2.175293 z"
     id="path258"
     inkscape:connector-curvature="0"
     style="fill:#000000;fill-opacity:1" />
  <path
     d="m 113.71338,37.338379 v -7.369141 h 4.28076 v 1.847657 h -2.56201 v 5.521484 z"
     id="path260"
     inkscape:connector-curvature="0"
     style="fill:#f541f7;fill-opacity:1" />
  <path
     d="m 118.15674,31.816895 v -1.847657 h 6.8374 v 1.847657 z"
     id="path262"
     inkscape:connector-curvature="0"
     style="fill:#f541f7;fill-opacity:1" />
  <path
     d="m 125.15674,31.816895 v -1.847657 h 6.8374 v 1.847657 z"
     id="path264"
     inkscape:connector-curvature="0"
     style="fill:#e961f6;fill-opacity:1" />
  <path
     d="m 132.15674,31.816895 v -1.847657 h 6.8374 v 1.847657 z"
     id="path266"
     inkscape:connector-curvature="0"
     style="fill:#f541f7;fill-opacity:1" />
  <path
     d="m 141.71338,37.338379 v -5.521484 h -2.55664 v -1.847657 h 4.27539 v 7.369141 z"
     id="path268"
     inkscape:connector-curvature="0"
     style="fill:#f541f7;fill-opacity:1" />
  <path
     d="M 156.14307,37.338379 V 23.319824 h 0.85937 v 14.018555 z"
     id="path270"
     inkscape:connector-curvature="0"
     style="fill:#000000;fill-opacity:1" />
  <path
     d="m 162.27832,33.261719 v 3.04541 h -0.99365 v -8.303711 h 0.99365 v 0.768066 q 0.24707,-0.4458 0.65796,-0.679443 0.41089,-0.233643 0.948,-0.233643 1.09033,0 1.71069,0.843262 0.62036,0.843262 0.62036,2.336426 0,1.466309 -0.62305,2.301514 -0.62304,0.835205 -1.708,0.835205 -0.54785,0 -0.95874,-0.233643 -0.41089,-0.233642 -0.64722,-0.679443 z m 2.90039,-2.245117 q 0,-1.149414 -0.36255,-1.734864 -0.36255,-0.585449 -1.0769,-0.585449 -0.71973,0 -1.09033,0.588135 -0.37061,0.588135 -0.37061,1.732178 0,1.138671 0.37061,1.729492 0.3706,0.59082 1.09033,0.59082 0.71435,0 1.0769,-0.585449 0.36255,-0.585449 0.36255,-1.734863 z"
     id="path272"
     inkscape:connector-curvature="0"
     style="fill:#000000;fill-opacity:1" />
  <path
     d="m 1.605957,7.127441 q 1.369629,0 1.912109,-0.674072 0.542481,-0.674072 0.542481,-2.435791 0,-1.777832 -0.539795,-2.451904 Q 2.980957,0.891602 1.605957,0.891602 H 1.090332 V 7.127441 Z M 1.627437,0 q 1.836914,0 2.707031,0.977539 0.870118,0.977539 0.870118,3.040039 0,2.051758 -0.870118,3.026611 Q 3.464355,8.019043 1.627441,8.019043 H 0 V 0 Z"
     id="path274"
     inkscape:connector-curvature="0"
     style="fill:#000000;fill-opacity:1" />
  <path
     d="m 30.143066,24.338379 v -6.907227 h 3.851074 v 0.923829 h -2.991699 v 5.983398 z"
     id="path276"
     inkscape:connector-curvature="0"
     style="fill:#000000;fill-opacity:1" />
  <path
     d="m 34.156738,18.354981 v -0.923829 h 6.837402 v 0.923829 z"
     id="path278"
     inkscape:connector-curvature="0"
     style="fill:#000000;fill-opacity:1" />
  <path
     d="m 41.156738,18.354981 v -0.923829 h 6.837402 v 0.923829 z"
     id="path280"
     inkscape:connector-curvature="0"
     style="fill:#000000;fill-opacity:1" />
  <path
     d="m 48.156738,18.354981 v -0.923829 h 6.837402 v 0.923829 z"
     id="path282"
     inkscape:connector-curvature="0"
     style="fill:#000000;fill-opacity:1" />
  <path
     d="m 58.143066,24.338379 v -5.983398 h -2.986328 v -0.923829 h 3.845703 v 6.907227 z"
     id="path284"
     inkscape:connector-curvature="0"
     style="fill:#000000;fill-opacity:1" />
  <path
     d="m 128.14307,24.338379 v -6.907227 h 3.85107 v 0.923829 h -2.9917 v 5.983398 z"
     id="path286"
     inkscape:connector-curvature="0"
     style="fill:#000000;fill-opacity:1" />
  <path
     d="m 132.15674,18.354981 v -0.923829 h 6.8374 v 0.923829 z"
     id="path288"
     inkscape:connector-curvature="0"
     style="fill:#000000;fill-opacity:1" />
  <path
     d="m 139.15674,18.354981 v -0.923829 h 6.8374 v 0.923829 z"
     id="path290"
     inkscape:connector-curvature="0"
     style="fill:#000000;fill-opacity:1" />
  <path
     d="m 146.15674,18.354981 v -0.923829 h 6.8374 v 0.923829 z"
     id="path292"
     inkscape:connector-curvature="0"
     style="fill:#000000;fill-opacity:1" />
  <path
     d="m 156.14307,24.338379 v -5.983398 h -2.98633 v -0.923829 h 3.8457 v 6.907227 z"
     id="path294"
     inkscape:connector-curvature="0"
     style="fill:#000000;fill-opacity:1" />
  <path
     d="m 7.515625,0 h 4.721191 V 0.913086 H 8.605957 v 2.148437 h 3.29248 V 3.974609 H 8.605957 V 8.019043 H 7.515625 Z"
     id="path296"
     inkscape:connector-curvature="0"
     style="fill:#000000;fill-opacity:1" />
  <path
     d="M 16.572754,0.956055 15.428711,5.05957 h 2.288086 z M 15.91748,0 h 1.315918 l 2.45459,8.019043 H 18.56543 L 17.974609,5.929688 H 15.165527 L 14.585449,8.019043 H 13.46289 Z"
     id="path298"
     inkscape:connector-curvature="0"
     style="fill:#000000;fill-opacity:1" />
  <path
     d="m 22.568359,2.008789 h 1.675781 v 1.938965 h -1.675781 z m 0,4.055176 h 1.675781 v 1.955078 h -1.675781 z"
     id="path300"
     inkscape:connector-curvature="0"
     style="fill:#000000;fill-opacity:1" />
</svg>
