<?xml version="1.0" encoding="UTF-8" standalone="no"?>
<svg
   xmlns:dc="http://purl.org/dc/elements/1.1/"
   xmlns:cc="http://creativecommons.org/ns#"
   xmlns:rdf="http://www.w3.org/1999/02/22-rdf-syntax-ns#"
   xmlns:svg="http://www.w3.org/2000/svg"
   xmlns="http://www.w3.org/2000/svg"
   id="svg302"
   height="83.961914"
   width="178.62012"
   version="1.1">
  <metadata
     id="metadata308">
    <rdf:RDF>
      <cc:Work
         rdf:about="">
        <dc:format>image/svg+xml</dc:format>
        <dc:type
           rdf:resource="http://purl.org/dc/dcmitype/StillImage" />
        <dc:title></dc:title>
      </cc:Work>
    </rdf:RDF>
  </metadata>
  <defs
     id="defs306" />
  <path
     style="fill:#a72f20;fill-opacity:1"
     id="path2"
     d="m 1.901367,37.483402 v -7.36915 h 4.280761 v 1.84766 H 3.620117 v 5.52149 z" />
  <path
     style="fill:#a72f20;fill-opacity:1"
     id="path4"
     d="m 1.901367,50.483402 v -14.01856 h 1.71875 v 14.01856 z" />
  <path
     style="fill:#a72f20;fill-opacity:1"
     id="path6"
     d="m 1.901367,57.961912 v -8.49707 h 1.71875 v 6.64941 h 2.562011 v 1.84766 z" />
  <path
     style="fill:#000000;fill-opacity:1"
     id="path8"
     d="m 29.466308,72.406742 v 3.04541 h -0.993652 v -8.30372 h 0.993652 v 0.76807 q 0.24707,-0.4458 0.657959,-0.67944 0.410889,-0.23365 0.947998,-0.23365 1.090332,0 1.710694,0.84327 0.620361,0.84326 0.620361,2.33642 0,1.46631 -0.623047,2.30152 -0.623047,0.8352 -1.708008,0.8352 -0.547851,0 -0.95874,-0.23364 -0.410889,-0.23364 -0.647217,-0.67944 z m 2.900391,-2.24512 q 0,-1.14942 -0.362549,-1.73487 -0.362549,-0.58544 -1.076904,-0.58544 -0.719727,0 -1.090332,0.58813 -0.370606,0.58814 -0.370606,1.73218 0,1.13867 0.370606,1.72949 0.370605,0.59082 1.090332,0.59082 0.714355,0 1.076904,-0.58545 0.362549,-0.58545 0.362549,-1.73486 z" />
  <path
     style="fill:#87f780;fill-opacity:1"
     id="path10"
     d="m 78.901367,83.961912 v -8.49707 h 1.71875 v 6.64941 h 2.562011 v 1.84766 z" />
  <path
     style="fill:#87f780;fill-opacity:1"
     id="path12"
     d="m 83.344726,83.961912 v -1.84766 h 6.837402 v 1.84766 z" />
  <path
     style="fill:#87f780;fill-opacity:1"
     id="path14"
     d="m 90.344728,83.961912 v -1.84766 h 6.8374 v 1.84766 z" />
  <path
     style="fill:#87f780;fill-opacity:1"
     id="path16"
     d="m 97.344728,83.961912 v -1.84766 h 6.837402 v 1.84766 z" />
  <path
     style="fill:#87f780;fill-opacity:1"
     id="path18"
     d="m 104.34473,83.961912 v -1.84766 h 2.55664 v -6.64941 h 1.71875 v 8.49707 z" />
  <path
     style="fill:#000000;fill-opacity:1"
     id="path20"
     d="m 36.826171,71.225092 h 1.675782 v 1.42334 l -1.192383,2.31495 -1.074219,0.005 0.59082,-2.32032 z" />
  <path
     style="fill:#000000;fill-opacity:1"
     id="path22"
     d="m 42.902343,72.256342 h 1.686524 v -6.05859 l -2.019531,0.97217 v -1.04199 l 2.008789,-0.95606 h 1.084961 v 7.08447 h 1.665039 v 0.90772 h -4.425782 z" />
  <path
     style="fill:#000000;fill-opacity:1"
     id="path24"
     d="m 51.331054,70.500002 v -8.03516 h 0.859375 v 7.11133 h 2.991699 v 0.92383 z" />
  <path
     style="fill:#000000;fill-opacity:1"
     id="path26"
     d="m 55.344726,70.500002 v -0.92383 h 6.837402 v 0.92383 z" />
  <path
     style="fill:#000000;fill-opacity:1"
     id="path28"
     d="m 62.344726,70.500002 v -0.92383 h 6.837402 v 0.92383 z" />
  <path
     style="fill:#000000;fill-opacity:1"
     id="path30"
     d="m 69.484375,73.583002 v -6.55273 l 6.558105,3.27637 z" />
  <path
     style="fill:#87f780;fill-opacity:1"
     id="path32"
     d="m 78.901367,76.483402 v -14.01856 h 1.71875 v 14.01856 z" />
  <path
     style="fill:#000000;fill-opacity:1"
     id="path34"
     d="m 90.989258,67.148432 h 1.02588 l 1.7456,5.04883 1.75098,-5.04883 h 1.02588 l -2.1377,6.01563 h -1.27294 z" />
  <path
     style="fill:#87f780;fill-opacity:1"
     id="path36"
     d="m 106.90137,76.483402 v -14.01856 h 1.71875 v 14.01856 z" />
  <path
     style="fill:#000000;fill-opacity:1"
     id="path38"
     d="m 111.34473,70.500002 v -0.92383 h 6.8374 v 0.92383 z" />
  <path
     style="fill:#000000;fill-opacity:1"
     id="path40"
     d="m 118.34473,70.500002 v -0.92383 h 6.8374 v 0.92383 z" />
  <path
     style="fill:#000000;fill-opacity:1"
     id="path42"
     d="m 125.34473,70.500002 v -0.92383 h 2.98633 v -7.11133 h 0.85937 v 8.03516 z" />
  <path
     style="fill:#000000;fill-opacity:1"
     id="path44"
     d="m 134.46631,72.406742 v 3.04541 h -0.99365 v -8.30372 h 0.99365 v 0.76807 q 0.24707,-0.4458 0.65796,-0.67944 0.41089,-0.23365 0.948,-0.23365 1.09033,0 1.71069,0.84327 0.62036,0.84326 0.62036,2.33642 0,1.46631 -0.62305,2.30152 -0.62304,0.8352 -1.708,0.8352 -0.54785,0 -0.95874,-0.23364 -0.41089,-0.23364 -0.64722,-0.67944 z m 2.90039,-2.24512 q 0,-1.14942 -0.36255,-1.73487 -0.36255,-0.58544 -1.0769,-0.58544 -0.71973,0 -1.09033,0.58813 -0.37061,0.58814 -0.37061,1.73218 0,1.13867 0.37061,1.72949 0.3706,0.59082 1.09033,0.59082 0.71435,0 1.0769,-0.58545 0.36255,-0.58545 0.36255,-1.73486 z" />
  <path
     style="fill:#000000;fill-opacity:1"
     id="path46"
     d="m 141.82617,71.225092 h 1.67578 v 1.42334 l -1.19238,2.31495 -1.07422,0.005 0.59082,-2.32032 z" />
  <path
     style="fill:#000000;fill-opacity:1"
     id="path48"
     d="m 147.90234,72.256342 h 1.68653 v -6.05859 l -2.01953,0.97217 v -1.04199 l 2.00879,-0.95606 h 1.08496 v 7.08447 h 1.66504 v 0.90772 h -4.42579 z" />
  <path
     style="fill:#a72f20;fill-opacity:1"
     id="path50"
     d="m 6.344726,57.961912 v -1.84766 h 6.837402 v 1.84766 z" />
  <path
     style="fill:#a72f20;fill-opacity:1"
     id="path52"
     d="m 13.344726,57.961912 v -1.84766 h 6.837402 v 1.84766 z" />
  <path
     style="fill:#a72f20;fill-opacity:1"
     id="path54"
     d="m 20.344726,57.961912 v -1.84766 h 6.837402 v 1.84766 z" />
  <path
     style="fill:#a72f20;fill-opacity:1"
     id="path56"
     d="m 27.344726,57.961912 v -1.84766 h 2.556641 v -6.64941 h 1.71875 v 8.49707 z" />
  <path
     style="fill:#000000;fill-opacity:1"
     id="path58"
     d="m 34.344726,57.500002 v -0.92383 h 6.837402 v 0.92383 z" />
  <path
     style="fill:#000000;fill-opacity:1"
     id="path60"
     d="m 41.344726,57.500002 v -0.92383 h 6.837402 v 0.92383 z" />
  <path
     style="fill:#000000;fill-opacity:1"
     id="path62"
     d="m 51.331054,63.483402 v -5.9834 h -2.986328 v -0.92383 h 3.845703 v 6.90723 z" />
  <path
     style="fill:#87f780;fill-opacity:1"
     id="path64"
     d="m 78.901367,63.483402 v -7.36915 h 4.280761 v 1.84766 h -2.562011 v 5.52149 z" />
  <path
     style="fill:#87f780;fill-opacity:1"
     id="path66"
     d="m 83.344726,57.961912 v -1.84766 h 6.837402 v 1.84766 z" />
  <path
     style="fill:#000000;fill-opacity:1"
     id="path68"
     d="m 93.760738,60.583002 -3.27636,-6.55273 h 6.5581 z" />
  <path
     style="fill:#87f780;fill-opacity:1"
     id="path70"
     d="m 97.344728,57.961912 v -1.84766 h 6.837402 v 1.84766 z" />
  <path
     style="fill:#87f780;fill-opacity:1"
     id="path72"
     d="m 106.90137,63.483402 v -5.52149 h -2.55664 v -1.84766 h 4.27539 v 7.36915 z" />
  <path
     style="fill:#000000;fill-opacity:1"
     id="path74"
     d="m 128.33106,63.483402 v -6.90723 h 3.85107 v 0.92383 h -2.9917 v 5.9834 z" />
  <path
     style="fill:#000000;fill-opacity:1"
     id="path76"
     d="m 132.34473,57.500002 v -0.92383 h 6.8374 v 0.92383 z" />
  <path
     style="fill:#000000;fill-opacity:1"
     id="path78"
     d="m 139.48438,60.583002 v -6.55273 l 6.5581,3.27637 z" />
  <path
     style="fill:#276ad9;fill-opacity:1"
     id="path80"
     d="m 148.90137,57.961912 v -8.49707 h 1.71875 v 6.64941 h 2.56201 v 1.84766 z" />
  <path
     style="fill:#276ad9;fill-opacity:1"
     id="path82"
     d="m 153.34473,57.961912 v -1.84766 h 6.8374 v 1.84766 z" />
  <path
     style="fill:#276ad9;fill-opacity:1"
     id="path84"
     d="m 160.34473,57.961912 v -1.84766 h 6.8374 v 1.84766 z" />
  <path
     style="fill:#276ad9;fill-opacity:1"
     id="path86"
     d="m 167.34473,57.961912 v -1.84766 h 6.8374 v 1.84766 z" />
  <path
     style="fill:#276ad9;fill-opacity:1"
     id="path88"
     d="m 174.34473,57.961912 v -1.84766 h 2.55664 v -6.64941 h 1.71875 v 8.49707 z" />
  <path
     style="fill:#000000;fill-opacity:1"
     id="path90"
     d="m 18.678222,41.357912 v 0.96679 q -0.424316,-0.24707 -0.854004,-0.3706 -0.429687,-0.12354 -0.875488,-0.12354 -0.671387,0 -1.001709,0.21753 -0.330322,0.21753 -0.330322,0.66333 0,0.40283 0.24707,0.60157 0.24707,0.19873 1.229981,0.38671 l 0.39746,0.0752 q 0.73584,0.13965 1.114502,0.55859 0.378663,0.41895 0.378663,1.09034 0,0.8916 -0.633789,1.39379 -0.63379,0.5022 -1.761719,0.5022 -0.445801,0 -0.934571,-0.094 -0.488769,-0.094 -1.058105,-0.28199 v -1.0205 q 0.553223,0.28466 1.058105,0.427 0.504883,0.14233 0.956055,0.14233 0.655274,0 1.015137,-0.26587 0.359863,-0.26587 0.359863,-0.74389 0,-0.6875 -1.315918,-0.95069 l -0.04297,-0.0107 -0.370605,-0.0752 q -0.854004,-0.16651 -1.246094,-0.56128 -0.39209,-0.39478 -0.39209,-1.07691 0,-0.86474 0.58545,-1.33471 0.585449,-0.46998 1.67041,-0.46998 0.483398,0 0.929199,0.0886 0.445801,0.0886 0.875488,0.26587 z" />
  <path
     style="fill:#a72f20;fill-opacity:1"
     id="path92"
     d="m 29.901367,50.483402 v -14.01856 h 1.71875 v 14.01856 z" />
  <path
     style="fill:#000000;fill-opacity:1"
     id="path94"
     d="m 68.457031,41.148432 -2.153809,2.87891 2.363281,3.13672 H 67.52246 l -1.761718,-2.41162 -1.756348,2.41162 h -1.144043 l 2.363281,-3.13672 -2.153808,-2.87891 h 1.095703 l 1.595215,2.1753 1.584472,-2.1753 z" />
  <path
     style="fill:#000000;fill-opacity:1"
     id="path96"
     d="m 71.826171,45.225092 h 1.675782 v 1.42334 l -1.192383,2.31495 -1.074219,0.005 0.59082,-2.32032 z" />
  <path
     style="fill:#000000;fill-opacity:1"
     id="path98"
     d="m 77.902343,46.256342 h 1.686524 v -6.05859 l -2.019531,0.97217 v -1.04199 l 2.008789,-0.95606 h 1.084961 v 7.08447 h 1.665039 v 0.90772 h -4.425782 z" />
  <path
     style="fill:#000000;fill-opacity:1"
     id="path100"
     d="m 93.331058,50.483402 v -14.01856 h 0.85937 v 14.01856 z" />
  <path
     style="fill:#276ad9;fill-opacity:1"
     id="path102"
     d="m 148.90137,50.483402 v -14.01856 h 1.71875 v 14.01856 z" />
  <path
     style="fill:#000000;fill-opacity:1"
     id="path104"
     d="m 163.75,39.440432 v 1.708 h 2.24512 v 0.76807 H 163.75 v 3.26563 q 0,0.66601 0.25244,0.9292 0.25244,0.26318 0.88086,0.26318 h 1.11182 v 0.78955 h -1.2085 q -1.11181,0 -1.56836,-0.4458 -0.45654,-0.4458 -0.45654,-1.53613 v -3.26563 h -1.60596 v -0.76807 h 1.60596 v -1.708 z" />
  <path
     style="fill:#276ad9;fill-opacity:1"
     id="path106"
     d="m 176.90137,50.483402 v -14.01856 h 1.71875 v 14.01856 z" />
  <path
     style="fill:#a72f20;fill-opacity:1"
     id="path108"
     d="m 6.344726,31.961912 v -1.84766 h 6.837402 v 1.84766 z" />
  <path
     style="fill:#a72f20;fill-opacity:1"
     id="path110"
     d="m 13.344726,31.961912 v -1.84766 h 6.837402 v 1.84766 z" />
  <path
     style="fill:#a72f20;fill-opacity:1"
     id="path112"
     d="m 20.344726,31.961912 v -1.84766 h 6.837402 v 1.84766 z" />
  <path
     style="fill:#a72f20;fill-opacity:1"
     id="path114"
     d="m 29.901367,37.483402 v -5.52149 h -2.556641 v -1.84766 h 4.275391 v 7.36915 z" />
  <path
     style="fill:#000000;fill-opacity:1"
     id="path116"
     d="m 34.344726,31.500002 v -0.92383 h 6.837402 v 0.92383 z" />
  <path
     style="fill:#000000;fill-opacity:1"
     id="path118"
     d="m 41.344726,31.500002 v -0.92383 h 6.837402 v 0.92383 z" />
  <path
     style="fill:#000000;fill-opacity:1"
     id="path120"
     d="m 48.344726,31.500002 v -0.92383 h 2.986328 v -7.11133 h 0.859375 v 8.03516 z" />
  <path
     style="fill:#f0782f;fill-opacity:1"
     id="path122"
     d="m 78.901367,31.961912 v -8.49707 h 1.71875 v 6.64941 h 2.562011 v 1.84766 z" />
  <path
     style="fill:#f0782f;fill-opacity:1"
     id="path124"
     d="m 83.344726,31.961912 v -1.84766 h 6.837402 v 1.84766 z" />
  <path
     style="fill:#f0782f;fill-opacity:1"
     id="path126"
     d="m 90.344728,31.961912 v -1.84766 h 6.8374 v 1.84766 z" />
  <path
     style="fill:#f0782f;fill-opacity:1"
     id="path128"
     d="m 97.344728,31.961912 v -1.84766 h 6.837402 v 1.84766 z" />
  <path
     style="fill:#f0782f;fill-opacity:1"
     id="path130"
     d="m 104.34473,31.961912 v -1.84766 h 2.55664 v -6.64941 h 1.71875 v 8.49707 z" />
  <path
     style="fill:#000000;fill-opacity:1"
     id="path132"
     d="m 128.33106,31.500002 v -8.03516 h 0.85937 v 7.11133 h 2.9917 v 0.92383 z" />
  <path
     style="fill:#000000;fill-opacity:1"
     id="path134"
     d="m 132.34473,31.500002 v -0.92383 h 6.8374 v 0.92383 z" />
  <path
     style="fill:#000000;fill-opacity:1"
     id="path136"
     d="m 139.48438,34.583002 v -6.55273 l 6.5581,3.27637 z" />
  <path
     style="fill:#276ad9;fill-opacity:1"
     id="path138"
     d="m 148.90137,37.483402 v -7.36915 h 4.28076 v 1.84766 h -2.56201 v 5.52149 z" />
  <path
     style="fill:#276ad9;fill-opacity:1"
     id="path140"
     d="m 153.34473,31.961912 v -1.84766 h 6.8374 v 1.84766 z" />
  <path
     style="fill:#276ad9;fill-opacity:1"
     id="path142"
     d="m 160.34473,31.961912 v -1.84766 h 6.8374 v 1.84766 z" />
  <path
     style="fill:#276ad9;fill-opacity:1"
     id="path144"
     d="m 167.34473,31.961912 v -1.84766 h 6.8374 v 1.84766 z" />
  <path
     style="fill:#276ad9;fill-opacity:1"
     id="path146"
     d="m 176.90137,37.483402 v -5.52149 h -2.55664 v -1.84766 h 4.27539 v 7.36915 z" />
  <path
     style="fill:#000000;fill-opacity:1"
     id="path148"
     d="m 5.381836,7.503412 q -0.435059,0.40284 -0.980225,0.60963 -0.545166,0.20678 -1.178955,0.20678 -1.525391,0 -2.374024,-1.09302 Q 0,6.133789 0,4.162597 0,2.196777 0.859375,1.098388 1.71875,0 3.249511,0 3.754394,0 4.216308,0.142333 4.678222,0.284667 5.10791,0.574707 V 1.686523 Q 4.672851,1.272949 4.216308,1.076904 3.759765,0.880859 3.249511,0.880859 q -1.058105,0 -1.587158,0.819092 Q 1.1333,2.519042 1.1333,4.162597 q 0,1.67041 0.51294,2.473389 0.512939,0.802976 1.576416,0.802976 0.359863,0 0.631103,-0.0833 Q 4.125,7.272462 4.345214,7.095164 V 4.941356 H 3.179687 V 4.049754 h 2.202149 z" />
  <path
     style="fill:#000000;fill-opacity:1"
     id="path150"
     d="m 29.466308,20.406742 v 3.04541 h -0.993652 v -8.30371 h 0.993652 v 0.76806 q 0.24707,-0.4458 0.657959,-0.67944 0.410889,-0.23365 0.947998,-0.23365 1.090332,0 1.710694,0.84327 0.620361,0.84326 0.620361,2.33642 0,1.46631 -0.623047,2.30152 -0.623047,0.8352 -1.708008,0.8352 -0.547851,0 -0.95874,-0.23364 -0.410889,-0.23364 -0.647217,-0.67944 z m 2.900391,-2.24512 q 0,-1.14941 -0.362549,-1.73487 -0.362549,-0.58544 -1.076904,-0.58544 -0.719727,0 -1.090332,0.58813 -0.370606,0.58814 -0.370606,1.73218 0,1.13867 0.370606,1.72949 0.370605,0.59082 1.090332,0.59082 0.714355,0 1.076904,-0.58545 0.362549,-0.58545 0.362549,-1.73486 z" />
  <path
     style="fill:#000000;fill-opacity:1"
     id="path152"
     d="m 36.826171,19.225102 h 1.675782 v 1.42334 l -1.192383,2.31494 -1.074219,0.005 0.59082,-2.32031 z" />
  <path
     style="fill:#000000;fill-opacity:1"
     id="path154"
     d="m 42.902343,20.256352 h 1.686524 v -6.0586 l -2.019531,0.97217 v -1.04199 l 2.008789,-0.95606 h 1.084961 v 7.08448 h 1.665039 v 0.90771 h -4.425782 z" />
  <path
     style="fill:#000000;fill-opacity:1"
     id="path156"
     d="m 51.331054,24.483402 v -6.90723 h 3.851074 v 0.92383 h -2.991699 v 5.9834 z" />
  <path
     style="fill:#000000;fill-opacity:1"
     id="path158"
     d="m 55.344726,18.500002 v -0.92383 h 6.837402 v 0.92383 z" />
  <path
     style="fill:#000000;fill-opacity:1"
     id="path160"
     d="m 62.344726,18.500002 v -0.92383 h 6.837402 v 0.92383 z" />
  <path
     style="fill:#000000;fill-opacity:1"
     id="path162"
     d="m 69.484375,21.583002 v -6.55273 l 6.558105,3.27637 z" />
  <path
     style="fill:#f0782f;fill-opacity:1"
     id="path164"
     d="m 78.901367,24.483402 v -14.01856 h 1.71875 v 14.01856 z" />
  <path
     style="fill:#000000;fill-opacity:1"
     id="path166"
     d="m 91.499508,18.886722 v -3.72754 h 0.98829 v 3.72754 q 0,0.81103 0.28735,1.19238 0.28735,0.38135 0.88891,0.38135 0.69825,0 1.06885,-0.49146 0.37061,-0.49145 0.37061,-1.40991 v -3.3999 h 0.99365 v 6.00488 h -0.99365 v -0.90234 q -0.26319,0.52099 -0.71704,0.78955 -0.45386,0.26855 -1.06079,0.26855 -0.92383,0 -1.375,-0.60425 -0.45118,-0.60424 -0.45118,-1.82885 z" />
  <path
     style="fill:#f0782f;fill-opacity:1"
     id="path168"
     d="m 106.90137,24.483402 v -14.01856 h 1.71875 v 14.01856 z" />
  <path
     style="fill:#000000;fill-opacity:1"
     id="path170"
     d="m 111.34473,18.500002 v -0.92383 h 6.8374 v 0.92383 z" />
  <path
     style="fill:#000000;fill-opacity:1"
     id="path172"
     d="m 118.34473,18.500002 v -0.92383 h 6.8374 v 0.92383 z" />
  <path
     style="fill:#000000;fill-opacity:1"
     id="path174"
     d="m 128.33106,24.483402 v -5.9834 h -2.98633 v -0.92383 h 3.8457 v 6.90723 z" />
  <path
     style="fill:#000000;fill-opacity:1"
     id="path176"
     d="m 138.45703,15.148442 -2.15381,2.8789 2.36328,3.13672 h -1.14404 l -1.76172,-2.41162 -1.75634,2.41162 h -1.14405 l 2.36328,-3.13672 -2.1538,-2.8789 h 1.0957 l 1.59521,2.17529 1.58448,-2.17529 z" />
  <path
     style="fill:#000000;fill-opacity:1"
     id="path178"
     d="m 141.82617,19.225102 h 1.67578 v 1.42334 l -1.19238,2.31494 -1.07422,0.005 0.59082,-2.32031 z" />
  <path
     style="fill:#000000;fill-opacity:1"
     id="path180"
     d="m 150.62012,16.872562 q 0.78955,0.20947 1.20849,0.74389 0.41895,0.53443 0.41895,1.33472 0,1.10645 -0.7439,1.73755 -0.74389,0.6311 -2.05981,0.6311 -0.55322,0 -1.12793,-0.10205 -0.57471,-0.10205 -1.12793,-0.29541 v -1.07959 q 0.54785,0.28467 1.07959,0.42432 0.53174,0.13965 1.0581,0.13965 0.89161,0 1.36963,-0.40284 0.47803,-0.40283 0.47803,-1.16015 0,-0.69825 -0.47803,-1.10913 -0.47802,-0.41089 -1.29443,-0.41089 h -0.82715 v -0.8916 h 0.82715 q 0.74658,0 1.16553,-0.32764 0.41894,-0.32764 0.41894,-0.91309 0,-0.61767 -0.3894,-0.94799 -0.38941,-0.33033 -1.10913,-0.33033 -0.47803,0 -0.98828,0.10742 -0.51026,0.10743 -1.06885,0.32227 v -0.99902 q 0.6499,-0.17188 1.15747,-0.25781 0.50757,-0.0859 0.89966,-0.0859 1.1709,0 1.87182,0.58813 0.70093,0.58814 0.70093,1.56031 0,0.66064 -0.36792,1.10107 -0.36792,0.44043 -1.07153,0.62305 z" />
  <path
     style="fill:#000000;fill-opacity:1"
     id="path182"
     d="m 8.756347,2.153808 h 1.675781 V 4.092773 H 8.756347 Z m 0,4.055176 h 1.675781 V 8.164062 H 8.756347 Z" />
  <path
     style="fill:#f0782f;fill-opacity:1"
     id="path184"
     d="M 78.901367,11.483402 V 4.114257 h 4.280761 v 1.847657 h -2.562011 v 5.521488 z" />
  <path
     style="fill:#f0782f;fill-opacity:1"
     id="path186"
     d="M 83.344726,5.961914 V 4.114257 h 6.837402 v 1.847657 z" />
  <path
     style="fill:#f0782f;fill-opacity:1"
     id="path188"
     d="M 90.344728,5.961914 V 4.114257 h 6.8374 v 1.847657 z" />
  <path
     style="fill:#f0782f;fill-opacity:1"
     id="path190"
     d="M 97.344728,5.961914 V 4.114257 h 6.837402 v 1.847657 z" />
  <path
     style="fill:#f0782f;fill-opacity:1"
     id="path192"
     d="M 106.90137,11.483402 V 5.961914 h -2.55664 V 4.114257 h 4.27539 v 7.369145 z" />
</svg>
